<?xml version="1.0" standalone="no"?>
<!DOCTYPE svg PUBLIC "-//W3C//DTD SVG 20010904//EN"
 "http://www.w3.org/TR/2001/REC-SVG-20010904/DTD/svg10.dtd">
<svg version="1.0" xmlns="http://www.w3.org/2000/svg"
 width="300.000000pt" height="156.000000pt" viewBox="0 0 300.000000 156.000000"
 preserveAspectRatio="xMidYMid meet">
<metadata>
Created by potrace 1.10, written by Peter Selinger 2001-2011
</metadata>
<g transform="translate(0.000000,156.000000) scale(0.100000,-0.100000)"
fill="#000000" stroke="none">
<path d="M60 1211 c0 -159 -3 -296 -6 -305 -3 -9 -2 -16 3 -16 5 0 15 16 22
35 14 40 210 474 241 535 l20 40 -140 0 -140 0 0 -289z m218 250 c1 0 -6 -13
-15 -28 -12 -19 -14 -24 -4 -19 16 10 8 -7 -17 -36 -7 -9 -11 -21 -8 -27 3 -5
1 -11 -6 -13 -6 -2 -12 -11 -14 -20 -2 -17 -24 -67 -60 -141 -13 -27 -24 -56
-24 -65 0 -15 -2 -15 -10 -2 -6 10 -10 11 -10 3 0 -7 -4 -13 -10 -13 -11 0
-14 308 -4 346 5 20 11 21 92 19 48 -2 88 -3 90 -4z"/>
<path d="M381 1233 c0 -209 3 -263 12 -243 31 68 219 487 224 498 4 9 -23 12
-116 12 l-121 0 1 -267z m147 231 c25 -5 30 -10 27 -31 -1 -13 -8 -30 -15 -36
-10 -9 -11 -9 -5 3 5 8 4 12 0 8 -5 -5 -10 -20 -11 -34 -2 -14 -9 -34 -17 -43
-8 -9 -12 -22 -9 -30 2 -8 0 -11 -6 -7 -6 4 -8 -2 -4 -16 3 -14 2 -19 -6 -14
-11 6 -16 -5 -13 -26 0 -4 -11 -26 -25 -50 -15 -25 -24 -33 -21 -20 3 12 2 22
-3 22 -6 0 -6 200 -1 262 1 6 28 14 62 17 9 0 30 -2 47 -5z"/>
<path d="M660 770 l0 -730 112 0 c105 0 111 1 90 16 -48 34 -83 141 -101 312
-6 59 -11 319 -11 617 l0 515 -45 0 -45 0 0 -730z m56 152 c0 -345 4 -544 11
-577 6 -27 14 -79 18 -115 4 -36 13 -72 21 -81 9 -9 12 -24 8 -34 -5 -12 -4
-16 3 -12 6 4 13 0 17 -8 4 -10 -1 -15 -17 -16 -29 -2 -71 2 -76 6 -6 7 -11
1269 -5 1318 3 26 9 47 12 47 4 0 7 -237 8 -528z"/>
<path d="M820 1053 c0 -459 9 -632 36 -716 25 -77 76 -87 107 -22 31 65 37
167 40 678 l2 507 -92 0 -93 0 0 -447z m135 401 c15 -15 16 -64 12 -528 -4
-479 -8 -563 -27 -551 -4 3 -8 -1 -7 -8 1 -29 -4 -47 -12 -47 -21 0 -39 33
-46 82 -4 29 -12 61 -17 72 -7 13 -7 16 1 12 15 -10 14 7 -1 23 -11 11 -10 12
0 6 11 -6 12 -3 3 13 -7 14 -10 163 -8 471 2 492 -1 471 59 471 15 0 34 -7 43
-16z"/>
<path d="M1080 1001 c0 -274 -5 -545 -10 -602 -20 -203 -56 -319 -108 -345
-12 -6 -24 -13 -27 -15 -2 -3 52 -5 120 -4 l125 0 2 733 3 732 -52 0 -53 0 0
-499z m69 -227 c-1 -370 -5 -677 -8 -683 -4 -5 -30 -12 -59 -14 -43 -3 -50 -2
-41 9 6 8 9 21 5 29 -3 8 -1 15 4 15 6 0 10 9 10 19 0 11 4 22 9 25 5 3 7 16
3 28 -3 12 -1 19 4 15 5 -3 10 2 11 11 0 9 4 51 7 92 3 41 7 94 9 117 1 23 6
45 10 49 4 4 7 219 7 478 0 259 0 479 0 490 0 15 2 16 15 6 14 -12 16 -92 14
-686z"/>
<path d="M1668 1458 l4 -43 -204 3 -203 3 0 -305 0 -306 147 0 c145 0 148 0
153 23 3 12 30 130 60 262 29 132 62 277 73 323 l19 82 -26 0 c-25 0 -26 -2
-23 -42z m-21 -105 c-3 -16 -8 -44 -12 -63 -3 -19 -11 -48 -16 -65 -9 -25 -29
-117 -44 -200 -3 -18 -23 -91 -40 -152 -8 -26 -27 -30 -134 -28 -58 2 -86 6
-92 16 -10 16 -12 502 -2 512 3 4 83 7 176 7 l169 0 -5 -27z"/>
<path d="M1766 1448 c8 -29 32 -129 54 -223 22 -93 55 -230 72 -302 l32 -133
33 0 c27 0 35 -5 43 -26 14 -35 14 -34 -25 -34 -19 0 -35 -2 -35 -5 0 -2 36
-155 80 -339 44 -185 80 -337 80 -340 0 -2 23 -6 50 -8 28 -1 50 -3 50 -2 0 0
-27 65 -60 145 -33 79 -56 146 -52 150 4 4 18 10 32 14 24 6 27 1 64 -95 22
-55 43 -103 47 -106 4 -2 14 17 22 43 21 69 189 534 225 624 34 84 49 149 35
149 -12 0 -76 -69 -147 -157 -31 -39 -91 -104 -132 -143 -144 -136 -206 -129
-205 23 0 78 35 244 144 685 l33 132 -227 0 -228 0 15 -52z m378 2 c7 -7 -14
-122 -31 -170 -3 -8 -7 -24 -8 -35 -2 -11 -19 -83 -38 -160 -20 -77 -38 -156
-42 -175 -4 -19 -13 -45 -21 -57 -10 -17 -11 -23 -1 -26 8 -4 7 -6 -3 -6 -32
-1 -52 29 -71 106 -23 89 -27 107 -34 148 -3 17 -10 44 -15 60 -5 17 -12 41
-14 55 -18 83 -27 123 -44 188 l-20 72 22 5 c60 13 305 9 320 -5z m281 -667
c-3 -10 -18 -52 -31 -93 -14 -41 -30 -83 -35 -93 -5 -10 -7 -23 -3 -29 4 -6 3
-8 -2 -5 -5 3 -18 -23 -28 -59 -10 -35 -22 -64 -27 -64 -5 0 -6 -6 -3 -14 3
-7 -1 -20 -8 -27 -7 -8 -14 -23 -16 -34 -6 -37 -33 -115 -43 -121 -5 -3 -8 -2
-7 3 1 4 -3 18 -10 29 -6 12 -9 24 -6 26 3 3 -10 22 -29 42 -26 27 -43 36 -66
36 -19 0 -30 -4 -26 -10 3 -5 0 -7 -8 -5 -7 3 -21 38 -31 78 -26 109 -26 108
-8 99 38 -19 89 -14 112 10 13 13 19 16 14 8 -13 -23 74 48 133 109 29 29 53
58 53 63 0 5 5 6 10 3 6 -3 10 -2 10 4 0 12 42 61 54 61 4 0 5 -8 1 -17z"/>
<path d="M2337 1478 c25 -29 153 -196 153 -201 0 -7 -120 -97 -128 -97 -5 0
-30 32 -57 70 -27 39 -49 69 -50 68 -6 -7 -117 -394 -135 -468 -29 -122 -24
-200 12 -200 28 0 97 62 171 155 98 122 250 274 297 297 67 33 75 -12 26 -150
-25 -72 -70 -170 -280 -618 -75 -160 -136 -293 -136 -295 0 -3 23 -2 51 1 l50
5 43 95 c24 52 171 374 326 715 155 341 286 626 292 633 8 9 -57 12 -323 12
l-332 0 20 -22z m563 -36 c0 -10 -6 -27 -14 -37 -8 -11 -11 -26 -8 -35 3 -8 2
-12 -3 -8 -8 7 -56 -93 -58 -119 0 -7 -4 -13 -8 -13 -4 0 -15 -23 -24 -50 -9
-28 -20 -48 -24 -46 -4 3 -8 0 -9 -7 -3 -40 -59 -157 -74 -157 -7 0 -7 4 -1
13 5 6 11 35 12 64 2 42 -2 56 -21 75 -12 12 -29 23 -36 24 -21 4 -75 -22 -96
-45 -10 -11 -23 -18 -27 -15 -5 3 -9 1 -9 -3 0 -5 -33 -43 -72 -84 -40 -42
-89 -96 -108 -120 -19 -24 -47 -57 -62 -72 -15 -15 -28 -31 -29 -35 -4 -14
-62 -51 -72 -45 -6 3 -7 1 -3 -5 3 -6 2 -13 -4 -17 -6 -3 -9 15 -8 49 1 30 4
53 7 51 3 -2 7 9 7 23 2 24 26 119 42 162 3 8 7 24 9 35 12 66 61 195 75 195
8 0 12 -16 9 -33 -1 -5 2 -6 7 -4 4 3 19 -4 32 -15 14 -11 19 -16 11 -12 -9 4
-12 3 -7 -4 13 -22 70 3 126 55 14 13 28 23 32 23 5 0 8 6 8 14 0 8 5 16 11
18 18 6 -9 71 -45 109 -17 18 -32 37 -32 41 -1 4 -2 13 -3 19 0 5 -5 8 -9 5
-5 -3 -9 1 -9 9 0 13 37 15 244 15 228 0 243 -1 243 -18z"/>
<path d="M1736 1319 c-3 -13 -10 -51 -15 -84 -13 -82 -70 -386 -77 -407 -5
-16 4 -18 101 -18 60 0 104 4 101 9 -7 11 -58 267 -81 411 -10 58 -19 107 -21
109 -2 2 -5 -7 -8 -20z m29 -307 c16 -46 32 -141 25 -152 -11 -17 -76 -22 -89
-7 -7 9 -8 31 -1 73 12 76 18 108 21 114 1 3 3 12 4 20 1 8 6 26 11 40 7 22 9
20 16 -25 5 -27 11 -56 13 -63z"/>
<path d="M2940 1303 c-7 -21 -50 -142 -96 -270 -46 -127 -84 -234 -84 -237 0
-3 45 -6 100 -6 l100 0 0 275 c0 151 -2 275 -4 275 -3 0 -10 -17 -16 -37z
m-20 -341 l0 -128 -37 -2 c-52 -3 -65 7 -57 46 4 18 11 32 16 32 5 0 6 5 2 11
-3 6 -2 14 2 18 5 3 18 32 27 64 12 36 22 55 29 51 7 -4 8 -2 4 4 -7 11 0 32
10 32 2 0 4 -58 4 -128z"/>
<path d="M291 1213 c-26 -71 -192 -458 -212 -491 -18 -31 -19 -54 -19 -358 l0
-324 258 0 257 0 2 603 c3 533 1 599 -12 572 -34 -70 -244 -570 -241 -573 8
-7 56 54 51 65 -2 7 1 12 8 10 7 -1 11 6 9 17 -2 10 1 15 6 12 6 -3 13 6 16
22 4 15 13 41 20 57 46 103 56 127 56 140 0 8 4 15 9 15 8 0 19 28 27 68 1 8
5 16 8 20 6 5 12 -252 8 -358 -1 -30 -2 -182 -2 -337 0 -155 -5 -285 -9 -288
-7 -4 -328 -9 -418 -6 l-23 1 0 304 c0 264 2 307 16 320 8 9 13 16 9 16 -4 0
0 7 9 15 8 9 18 32 22 51 5 27 9 32 16 22 7 -9 8 -7 5 10 -3 12 -1 22 4 22 5
0 9 7 9 16 0 19 30 86 43 95 5 3 8 8 7 10 -1 2 4 18 11 34 7 17 12 33 11 38
-1 4 4 7 12 7 12 0 15 -32 18 -177 2 -117 7 -185 15 -198 10 -16 12 32 13 245
0 146 3 282 6 303 8 48 -8 48 -25 0z"/>
<path d="M1266 384 l2 -347 61 1 c34 0 64 2 65 3 2 2 22 98 45 214 45 227 88
429 97 457 5 17 -5 18 -133 18 l-138 0 1 -346z m224 284 c-1 -13 -7 -41 -15
-62 -8 -22 -12 -42 -10 -46 2 -3 -8 -51 -22 -105 -13 -55 -26 -113 -28 -130
-10 -81 -47 -232 -60 -245 -12 -11 -20 -12 -33 -4 -15 10 -17 38 -20 280 -1
148 0 284 3 302 l6 32 89 0 c87 0 90 -1 90 -22z"/>
<path d="M1601 678 c-47 -236 -121 -627 -121 -637 0 -8 72 -11 260 -11 221 0
260 2 260 15 0 8 -13 78 -29 157 -16 79 -46 230 -67 336 l-37 192 -128 0 -128
0 -10 -52z m250 -55 c9 -35 14 -63 11 -63 -2 0 2 -8 9 -17 12 -14 12 -16 0 -8
-10 6 -12 4 -6 -6 5 -7 10 -20 11 -29 2 -22 32 -168 46 -225 6 -27 11 -60 10
-72 -1 -13 2 -23 7 -23 4 0 9 -25 10 -55 l2 -55 -214 0 -214 0 8 53 c8 60 44
244 64 332 7 33 16 80 20 105 11 65 12 72 24 103 l11 28 92 -3 93 -3 16 -62z"/>
<path d="M2713 713 c-3 -10 -64 -163 -134 -339 -71 -177 -129 -325 -129 -328
0 -3 114 -6 253 -6 l252 0 -3 345 -3 345 -115 0 c-100 0 -115 -2 -121 -17z
m192 -328 l0 -300 -189 -3 c-104 -1 -193 1 -198 6 -9 9 14 85 48 156 13 28 24
56 24 63 0 7 5 13 11 13 6 0 9 7 5 15 -3 8 -1 15 4 15 6 0 10 8 10 18 0 9 12
44 26 77 14 33 26 66 27 73 0 6 4 12 8 12 4 0 10 12 14 27 3 15 14 43 22 62 9
20 17 38 17 41 6 26 23 31 94 28 l77 -3 0 -300z"/>
</g>
</svg>
